<svg width="25" height="25" viewBox="0 0 25 25" fill="none" xmlns="http://www.w3.org/2000/svg">
  <path
    d="M13.1456 25C5.89804 25 0 19.0957 0 11.8379C0 6.81208 2.79596 2.29703 7.29347 0.0548211C7.49501 -0.0447758 7.73991 -0.00646926 7.89807 0.151864C8.05624 0.310198 8.09961 0.555359 8.00012 0.757107C7.17868 2.42727 6.76285 4.22257 6.76285 6.09192C6.76285 12.7675 12.189 18.1993 18.8574 18.1993C20.7452 18.1993 22.5565 17.7728 24.2401 16.9352C24.4417 16.8356 24.6866 16.8739 24.8448 17.0323C25.0055 17.1931 25.0463 17.4357 24.9442 17.6375C22.7172 22.1781 18.1967 25 13.1456 25Z"
    fill="black" />
</svg>