<svg width="25" height="25" viewBox="0 0 25 25" fill="none" xmlns="http://www.w3.org/2000/svg">
  <path
    d="M11.535 2.662C11.0233 4.11914 10.6153 5.33037 10.6284 5.34338C10.6414 5.35639 10.8421 5.31736 11.0753 5.25919C11.6518 5.11659 13.4069 5.11659 13.9768 5.25919C14.197 5.31098 14.3784 5.34338 14.3784 5.31736C14.3784 5.23317 12.5324 1.2161e-05 12.5 1.2161e-05C12.4806 1.2161e-05 12.0467 1.19823 11.535 2.662Z"
    fill="white" />
  <path
    d="M3.63979 3.67218C3.65917 3.6982 4.20331 4.84438 4.85739 6.21759C5.51147 7.59081 6.06198 8.73698 6.088 8.763C6.11402 8.78902 6.263 8.61402 6.41835 8.37448C6.78111 7.81096 7.80432 6.78111 8.36784 6.41198C8.60738 6.25662 8.79539 6.12065 8.78876 6.11402C8.78238 6.10764 7.70075 5.5829 6.37932 4.95458C5.06453 4.31989 3.89871 3.763 3.79514 3.71096C3.6982 3.65943 3.62703 3.63979 3.63979 3.67218Z"
    fill="white" />
  <path
    d="M18.8148 4.87701C17.4612 5.52471 16.3406 6.07522 16.3212 6.10125C16.3018 6.12063 16.4765 6.26961 16.7097 6.41859C17.2538 6.78135 18.2964 7.82395 18.6204 8.33568C18.763 8.56247 18.8923 8.74359 18.912 8.74359C18.9314 8.74359 19.2747 8.06349 19.6699 7.23466C20.065 6.41221 20.6089 5.27216 20.8811 4.70864C21.1467 4.15176 21.3474 3.69181 21.3214 3.69181C21.2954 3.69155 20.1684 4.22931 18.8148 4.87701Z"
    fill="white" />
  <path
    d="M11.4184 6.25C9.47527 6.59974 7.74619 7.89515 6.86532 9.65025C5.82247 11.7421 5.97808 14.1061 7.28624 16.0946C7.62298 16.6064 8.41328 17.3964 8.9314 17.7462C9.47553 18.1089 10.3044 18.4974 10.9263 18.6658C11.3538 18.7888 11.5998 18.8084 12.5648 18.8084C13.614 18.8084 13.7436 18.7954 14.2748 18.627C18.6271 17.2992 20.2852 12.2541 17.5584 8.62704C16.1722 6.79413 13.7046 5.83546 11.4184 6.25Z"
    fill="white" />
  <path
    d="M2.6102 11.548C1.17219 12.0531 0 12.4806 0 12.5C0 12.5454 5.31096 14.3977 5.34336 14.3653C5.36275 14.3523 5.32397 14.1191 5.26556 13.8536C5.12959 13.2122 5.12959 11.7939 5.27193 11.1528C5.39489 10.5829 5.39489 10.6217 5.29795 10.6281C5.25255 10.6283 4.04132 11.0429 2.6102 11.548Z"
    fill="white" />
  <path
    d="M19.7151 10.7901C19.9353 11.6643 19.9743 13.0245 19.7993 13.86C19.7475 14.1255 19.7085 14.352 19.7151 14.3587C19.7409 14.3847 25.0001 12.5324 25.0001 12.5C25.0001 12.4806 23.8406 12.0597 22.4223 11.5674C21.0103 11.075 19.8121 10.6541 19.7603 10.6347C19.6891 10.6087 19.6827 10.6411 19.7151 10.7901Z"
    fill="white" />
  <path
    d="M4.87041 18.763C4.19031 20.1813 3.6398 21.3472 3.65281 21.3535C3.65919 21.3665 4.58547 20.9326 5.70587 20.3951C6.82628 19.8576 7.98572 19.3005 8.28368 19.1645L8.82118 18.912L8.41301 18.64C7.8625 18.2839 6.69669 17.1051 6.38572 16.5933C6.24312 16.3732 6.12654 16.1918 6.12016 16.1918C6.11404 16.1915 5.55052 17.351 4.87041 18.763Z"
    fill="white" />
  <path
    d="M18.5622 16.7681C18.1931 17.3186 17.1178 18.3612 16.6191 18.6591C16.4247 18.7824 16.2563 18.8987 16.2563 18.9183C16.2563 18.9507 21.25 21.3729 21.3275 21.3729C21.3469 21.3729 20.8158 20.2395 20.1487 18.8469C19.4882 17.4609 18.9247 16.3209 18.9053 16.3209C18.8859 16.3211 18.7306 16.5219 18.5622 16.7681Z"
    fill="white" />
  <path
    d="M10.6216 19.676C10.6216 19.7668 12.4675 25 12.4999 25C12.5387 25 14.3846 19.7408 14.3588 19.7151C14.3524 19.702 14.0803 19.7408 13.7629 19.7992C13.0634 19.9158 11.4961 19.8834 10.9649 19.7344C10.7772 19.676 10.6216 19.6566 10.6216 19.676Z"
    fill="white" />
</svg>